# xmcd
#
# Track frame offsets: 
#        150
#        17549
#        35088
#        69107
#        83863
#        114069
#        131584
#        151770
#        191658
#        206193
#
# Disc length: 3013 seconds
#
# Revision: 0
# Processed by: cddbd v1.5.2PL0 Copyright (c) Steve Scherf et al.
# Submitted via: ExactAudioCopy v1.0b1
#
DISCID=790bc30a
DTITLE=Eric Clapton  - The Blues Concert Cd 2 
DYEAR=1900
DGENRE=
TTITLE0=Someday After a While
TTITLE1=Crosscut Saw
TTITLE2=Have You Ever Loved a Woman
TTITLE3=I'm Tore Down
TTITLE4=Groaning The Blues
TTITLE5=Ain't Nobody's Business if I do
TTITLE6=Early In The Morning
TTITLE7=Driftin'
TTITLE8=Hoochie Coochie Man (Bonus track)
TTITLE9=Born Under A Bad Sign (Bonus track)
EXTD=
EXTT0=
EXTT1=
EXTT2=
EXTT3=
EXTT4=
EXTT5=
EXTT6=
EXTT7=
EXTT8=
EXTT9=
PLAYORDER=
